<svg width="623" height="554" viewBox="0 0 623 554" xmlns="http://www.w3.org/2000/svg" xmlns:xlink="http://www.w3.org/1999/xlink"><title>Orbits</title><defs><path id="a" d="M23.484.203H0V23.75h23.484z"/></defs><g fill="none" fill-rule="evenodd"><path d="M270.5 207.5l-157-133m131 197l-213.838 9.813M269.5 330.5L115.664 487.338M396.5 217.5L567.34 88.66M412.5 284.5l209.84 51.842M376.5 340.5l131.84 180.84" stroke="#373737" stroke-linecap="square"/><g transform="translate(53 1)" stroke="#525252" opacity=".494"><circle cx="275.338" cy="275.338" r="129.727"/><circle cx="276" cy="276" r="159.511"/><circle cx="276" cy="276" r="189.957"/><circle cx="276" cy="276" r="217.755"/><circle cx="276" cy="276" r="246.878"/><circle cx="276" cy="276" r="276"/></g><path d="M239.816 182.31c42.114-20.04 63.663-46.194 64.648-78.46 1.478-48.4 57.172-54.588 70.006-29.073 12.834 25.515 8.378 46.224 40.074 68.58 31.695 22.354 51.333 35.656 45.61 59.18-5.726 23.522 9.08 17.52 17.4 26.282 8.323 8.76-7.6 14.07-6.652 21.26.948 7.19 16.396 6.93 16.908 17.1.512 10.16 3.68 14.81 10.01 16.72 6.33 1.91 22.71 5.84 19.847 28.27-2.863 22.43-61.035 48.95-61.035 138.79 0 48.8-29.976 41.5-66.603 29.23-30.8-10.31-66.3-24.14-92.64-11.08-57.67 28.59-71.28 87.35-116.18 61.41-44.9-25.94-5.26-76.39 14.65-50.37 19.9 26.02-51.96 65.79-42.93-32.498 9.02-98.29-49.61-50.185-68.93-96.91-19.31-46.723-11.6-60.168-35-71.678-23.41-11.51-8.5-19.777-22.44-29.005" stroke="#767676" stroke-width="2" stroke-dasharray="3"/><g transform="translate(42 169)" stroke="#EB5424" stroke-width="2"><ellipse fill="#1F2028" cx="196.814" cy="12.514" rx="5.29" ry="5.303"/><ellipse fill="#1F2028" cx="415.235" cy="282.372" rx="5.29" ry="5.303"/><ellipse fill="#1F2028" cx="410.607" cy="7.291" rx="7.273" ry="7.291"/><ellipse fill="#1F2028" cx="7.273" cy="110.695" rx="7.273" ry="7.291"/><ellipse fill="#1F2028" cx="474.082" cy="142.511" rx="9.918" ry="9.943"/><path d="M475.23 145.893c10.3-3.15 18.32-6.772 17.917-8.092-.26-.84-4.394-.16-9.69.99-.247.06-3.794-8.07-12.5-5.7-8.066 2.19-6.227 11.13-6.712 11.32-5.278 2.07-8.66 3.94-8.394 4.81.41 1.32 9.08-.16 19.38-3.31z"/><ellipse fill="#1F2028" cx="110.421" cy="281.709" rx="7.273" ry="7.291"/></g><path d="M329.078 185.845c29.635 0 55.608 15.314 70.676 38.495 1.25 1.84 2.33 3.766 3.413 5.774 6.576 12.05 10.24 25.86 10.24 40.587 0 17.16-5.08 33.06-13.736 46.37-15.06 23.18-41.12 38.5-70.67 38.5-46.61 0-84.41-37.99-84.41-84.85s37.88-84.85 84.5-84.85z" stroke="#EB5424" stroke-width="2" stroke-linecap="round" stroke-linejoin="round"/><path d="M319.72 329.783s9.574 2.594 19.73.418l-.582 23.86s-11.655 1.68-19.147 0v-24.27z" fill="#FFF" fill-rule="nonzero"/><path d="M384.82 275.806c0 29.876-24.725 56.236-55.276 56.236-30.55 0-54.277-26.36-54.277-56.236 0-14.394 13.153-19.33 22.31-28.955 9.823-10.54 11.322-18.15 32.05-18.15 23.56 0 23.143 9.63 33.215 20.09 9.24 9.54 21.977 12.64 21.977 27.03z" stroke="#444" stroke-width="2" fill="#FFF" fill-rule="nonzero" stroke-linecap="round" stroke-linejoin="round"/><path d="M340.223 246.35c-2.33-.124-4.04-2.246-4.077-4.925-.634-35.248 16.01-68.185 29.377-94.65 1.21-2.49 4.054-3.28 6.112-1.903 2.14 1.376 2.835 4.485 1.626 6.975-12.84 25.387-28.71 56.915-28.2 89.4.04 2.845-2 5.153-4.42 5.278a.528.528 0 0 0-.41-.174zm-23.346-.92c-2.33.25-4.412-2.094-4.745-5.357-2.83-30.88-10.406-61.676-21.81-89.04-1.166-2.846-.5-6.36 1.332-7.784 1.997-1.51 3.136-.42 4.302 2.42 12.07 28.79 21.42 61.17 24.334 93.64.416 3.18-1.082 5.94-3.413 6.11z" fill="#FFF" fill-rule="nonzero"/><path d="M331.792 263.923c0-2.092 1.332-3.682 3.08-3.682s3.08 1.59 3.08 3.69m-18.398 0c0-2.09 1.332-3.68 3.08-3.68 1.75 0 3.08 1.59 3.08 3.69" fill="#444" fill-rule="nonzero"/><path d="M375.746 146.346c-14.32 26.946-31.967 60.504-30.47 94.73m-8.406 1.424c-1.582-37.24 16.9-72.22 31.716-100.422m-72.52 4.435c13.818 28.955 22.06 61.425 24.224 93.978m-8.87.95c-1.37-31.07-8.74-62.09-21.413-89.68" stroke="#444" stroke-width="2" stroke-linecap="round" stroke-linejoin="round"/><path d="M367.42 146.01c-3.162-3.346-4.328-8.953-2.33-14.31 2.497-7.196 9.407-10.04 15.4-7.95 5.994 2.093 8.825 8.62 6.327 15.817-2.497 7.197-9.573 11.047-15.483 8.954" stroke="#444" stroke-width="2" fill="#FFF" fill-rule="nonzero" stroke-linecap="round" stroke-linejoin="round"/><path d="M369.67 134.797c1.414-3.933 5.243-6.11 8.573-4.937 3.33 1.255 4.828 5.356 3.413 9.205-1.415 3.933-5.078 2.845-8.325 1.674 0 .08-4.74-3.02-3.66-5.95z" stroke="#1F2028" stroke-width="2" fill="#1F2028" fill-rule="nonzero" stroke-linecap="round" stroke-linejoin="round"/><path d="M291.75 154.212c-4.745-.084-9.407-3.264-11.82-8.536-3.164-6.862-.917-13.64 4.91-16.235 5.828-2.59 12.904-.33 16.067 6.53 2.747 6.03 1.5 12.64-2.747 16.07" stroke="#444" stroke-width="2" fill="#FFF" fill-rule="nonzero" stroke-linecap="round" stroke-linejoin="round"/><path d="M285.507 145.676c-2.58-3.598-2.248-8.285.75-10.544 2.996-2.26 7.657-1.088 10.155 2.51 2.497 3.6-.5 6.193-3.58 8.37.167.083-5.41 2.342-7.325-.336z" stroke="#1F2028" stroke-width="2" fill="#1F2028" fill-rule="nonzero" stroke-linecap="round" stroke-linejoin="round"/><g stroke="#444" stroke-width="2" stroke-linecap="round" stroke-linejoin="round"><path d="M363.26 294.72c0 11.8-14.902 21.255-33.383 21.255-18.48 0-33.382-9.54-33.382-21.256 0-11.8 14.9-3.6 33.382-3.6 18.48 0 33.382-8.12 33.382 3.6z" fill="#FFF" fill-rule="nonzero"/><path d="M337.62 302.585c2.496-.25 4.827-.502 7.158-.836m-30.468-.93c5.328 1.25 10.74 1.84 16.233 2.01"/></g><path d="M319.554 353.466v-21.424m19.646 0v21.424" stroke="#444" stroke-width="2" stroke-linecap="round" stroke-linejoin="round"/><path d="M17.685 244.774c.336-.08.91-.258 1.438-.607l-2.947-3.045a9.73 9.73 0 0 1-.865.68c.01.26.09.685.46 1.054l1.92 1.918zm2.984-.553c0 .16-.06.32-.19.45-1.16 1.17-2.86 1.4-2.93 1.41-.2.03-.39-.04-.53-.18l-2.16-2.15c-1.05-1.04-.8-2.35-.79-2.41a.6.6 0 0 1 .28-.4c.74-.46 1.36-1.1 1.37-1.11.12-.12.28-.19.45-.19.17 0 .33.07.45.19l3.85 3.98c.11.12.17.28.17.44z" fill="#FFF"/><path d="M20.67 244.22a.626.626 0 0 1-1.075.435l-3.42-3.533c-.29.255-.69.58-1.135.858a.626.626 0 0 1-.862-.198.621.621 0 0 1 .2-.86 8.372 8.372 0 0 0 1.368-1.112.628.628 0 0 1 .9 0l3.848 3.976a.626.626 0 0 1 .176.435" fill="#FFF"/><path d="M20.073 243.204a4.663 4.663 0 0 0 .645-1.42l-1.867-1.97c-.35-.38-.78-.47-1.04-.484-.24.33-.49.623-.7.846l2.97 3.028zm1.953-1.608a.577.577 0 0 1-.008.1c-.01.07-.293 1.754-1.487 2.884a.617.617 0 0 1-.87-.016l-3.87-3.953a.608.608 0 0 1-.17-.45c.01-.17.08-.33.2-.44.01 0 .67-.61 1.15-1.34.1-.14.25-.24.42-.27.06-.01 1.38-.22 2.39.85l2.1 2.21c.11.12.17.27.17.43z" fill="#FFF"/><path d="M19.57 243.272c1.727 1.836 3.04 3.41 2.93 3.512-.11.103-1.6-1.302-3.33-3.137-1.726-1.837-3.038-3.41-2.93-3.513.11-.103 1.6 1.302 3.33 3.138" fill="#FFF"/><path d="M19.54 243.297a.609.609 0 0 1-.044.232c-.5 1.24-2.104 1.87-2.286 1.94a.63.63 0 0 1-.438-1.18c.35-.13 1.313-.61 1.563-1.24a.624.624 0 0 1 .812-.35c.245.09.393.33.393.58" fill="#FFF"/><path d="M21.387 241.04c0 .09-.018.178-.058.264-.81 1.72-1.78 2.127-1.89 2.168a.63.63 0 0 1-.81-.366.62.62 0 0 1 .35-.8c.03-.017.64-.323 1.2-1.53a.623.623 0 0 1 1.19.264" fill="#FFF"/><path d="M20.05 243.916a.62.62 0 0 1-.156.415c-.946 1.07-2.42 1.41-2.483 1.43a.611.611 0 0 1-.74-.47c-.07-.33.14-.67.47-.74.03 0 1.16-.28 1.83-1.03a.624.624 0 1 1 1.09.42" fill="#FFF"/><path d="M21.744 241.298a.617.617 0 0 1-.02.158c-.41 1.575-1.546 2.465-1.594 2.503a.62.62 0 0 1-.876-.12.63.63 0 0 1 .11-.88c.024-.02.854-.69 1.15-1.83.088-.34.43-.54.763-.45.28.07.467.32.467.6m-1.726-1.24l2.9-5.03s-.72-.88-1.437-1.29c-.44-.26-1.12-.21-1.12-.21l-6.41-.115-6.31-5.84S2.41 223.46.87 225c-1.28 1.284 2.87 6.56 2.87 6.56l5.85 5.596.22 6.93s-.05.68.21 1.13c.41.72 1.6 1.69 1.6 1.69l4.558-2.818" fill="#FFF"/><g transform="rotate(-90 123.676 123.883)"><mask id="b" fill="#fff"><use xlink:href="#a"/></mask><path d="M12.518 23.75a.615.615 0 0 1-.313-.084l-5.023-2.9a.624.624 0 0 1-.23-.853.63.63 0 0 1 .855-.23l4.63 2.675c.278-.263.63-.64.825-.98.12-.207.135-.612.124-.776l.11-6.462a.634.634 0 0 1 .167-.413l5.84-6.316c1.543-1.97 3.33-5.15 2.582-5.9-.453-.45-3.215.95-5.696 2.89l-5.57 5.82c-.12.12-.27.19-.44.2l-6.93.22H3.4c-.16-.01-.565 0-.773.12-.373.22-.884.74-1.227 1.12l2.575 4.17a.625.625 0 0 1-1.063.66l-2.82-4.56a.616.616 0 0 1 .05-.72c.107-.13 1.067-1.29 1.864-1.743.544-.31 1.262-.292 1.446-.283l6.648-.21 5.42-5.67c.02-.02.04-.04.064-.06C17.3 2.084 21.458-.893 22.97.624c1.836 1.84-1.774 6.653-2.517 7.6l-5.71 6.18-.108 6.17c.005.032.052.832-.287 1.426-.463.81-1.395 1.57-1.434 1.61a.644.644 0 0 1-.396.14" fill="#FFF" mask="url(#b)"/></g><path d="M3.524 229.752l.205-.205s-.31-.615.41-1.334c.71-.718 1.23-.41 1.23-.41l.2-.308s-1.39-.565-2.05.103c-.67.667 0 2.154 0 2.154m1.33-.405c.14-.027.27.063.3.202.02.13-.07.27-.21.3-.14.02-.28-.07-.3-.21-.03-.14.06-.28.2-.3m.61-.62c.14-.03.27.06.3.2.03.14-.07.27-.2.3a.254.254 0 0 1-.3-.2c-.03-.14.06-.28.2-.3" fill="#2C2C2C"/></g></svg>